<svg id="Calque_1" data-name="Calque 1" xmlns="http://www.w3.org/2000/svg" viewBox="0 0 52 51"><defs><style>.cls-1{fill:#fff;}</style></defs><path class="cls-1" d="M41.45,12a.86.86,0,0,0-.06-.23,1.29,1.29,0,0,0-2.45.25,2.3,2.3,0,0,0,0,.26v1l-.14.05-4.56,1.48-11,3.55-7.62,2.46-.12,0a.61.61,0,0,0-.4.57v7.73a.6.6,0,0,0,.4.57l.27.09,1.37.43.13,0a.66.66,0,0,1,.4.58V31c0,1.06,0,2.13,0,3.19a5.61,5.61,0,0,0,1.18,3.48,5.8,5.8,0,0,0,10.26-2.14,6.43,6.43,0,0,0,.16-1.31v-.17a.19.19,0,0,1,.13,0l1.3.41L38.75,37l.15,0a.62.62,0,0,1,0,.13v.88a1.29,1.29,0,0,0,2.47.49.77.77,0,0,0,.07-.26.36.36,0,0,1,0-.1V12.12h0A.5.5,0,0,1,41.45,12ZM26.66,34h0a3.54,3.54,0,0,1-.14,1.07,3.18,3.18,0,0,1-2.47,2.23,3.22,3.22,0,0,1-3.78-2.54,3.39,3.39,0,0,1-.06-.64v-2a1.23,1.23,0,0,1,0-.2v0a.62.62,0,0,1,.75-.48,1.91,1.91,0,0,1,.34.1l4.8,1.5a.68.68,0,0,1,.53.73Z"/><path class="cls-1" d="M12.2,19.4a1.3,1.3,0,0,0-1.6.88,1.81,1.81,0,0,0-.07.52c0,1.22,0,2.45,0,3.67,0,1.69,0,3.38,0,5.08a1.3,1.3,0,0,0,0,.34,1.26,1.26,0,0,0,.91,1A1.3,1.3,0,0,0,13.08,30a2.1,2.1,0,0,0,.05-.43V25.15h0V20.61A1.31,1.31,0,0,0,12.2,19.4Z"/></svg>