<svg id="Calque_1" data-name="Calque 1" xmlns="http://www.w3.org/2000/svg" viewBox="0 0 52 51"><defs><style>.cls-1{fill:#e94560;}</style></defs><path class="cls-1" d="M36.35,18.09,26,18V5.23a.74.74,0,0,0-1.47,0V18L15.8,18a9.64,9.64,0,0,0-9.75,9.54l0,9.14H6a9.65,9.65,0,0,0,9.65,9.65l20.55.11A9.66,9.66,0,0,0,46,36.88l0-9.14h0A9.65,9.65,0,0,0,36.35,18.09ZM43.86,36.8a7.73,7.73,0,0,1-7.8,7.64l-20.25-.11a7.72,7.72,0,0,1-7.72-7.72l.05-9A7.73,7.73,0,0,1,15.94,20l8.57.05v9.59l-4.43-4.28a.75.75,0,0,0-1,0,.69.69,0,0,0,0,1l0,0,5.69,5.51a.75.75,0,0,0,1,0l5.68-5.5a.7.7,0,0,0,0-1l0,0a.75.75,0,0,0-1,0L26,29.62V20l10.21.06h0a7.72,7.72,0,0,1,7.72,7.72Z"/></svg>