<svg id="Calque_1" data-name="Calque 1" xmlns="http://www.w3.org/2000/svg" viewBox="0 0 52 51"><defs><style>.cls-1{fill:#e94560;}</style></defs><path class="cls-1" d="M45.25,21.9a6.52,6.52,0,0,0-.42-.65,5.6,5.6,0,0,0-1.73-1.52L28.94,11.55h0l0,0-1.56-.85L26,10h0l-1.33.72-1.56.85,0,0,0,0L8.9,19.73A5.8,5.8,0,0,0,9,29.8a5.87,5.87,0,0,0,2.83.75v2.19a8.32,8.32,0,0,0,8.31,8.31h11.8a8.31,8.31,0,0,0,8.3-8.3v-2.2h0a5.87,5.87,0,0,0,2.86-.75A5.79,5.79,0,0,0,45.25,21.9ZM37.43,32.75a5.55,5.55,0,0,1-5.55,5.54H20.09a5.55,5.55,0,0,1-5.55-5.54v-2.9l.16-.08L26,23.25l11.3,6.52.13.06Zm5.4-6.48a3.07,3.07,0,0,1-2.64,1.52,3,3,0,0,1-1.51-.4L26,20.06,13.32,27.38a3,3,0,0,1-3-5.27l14.15-8.17L26,13.1h0l1.56.85,14.15,8.17A3.05,3.05,0,0,1,42.83,26.27Z"/></svg>