<svg id="Calque_1" data-name="Calque 1" xmlns="http://www.w3.org/2000/svg" viewBox="0 0 52 51"><defs><style>.cls-1{fill:#fff;}</style></defs><path class="cls-1" d="M38.28,31.49l0,0a1.13,1.13,0,0,0-1.52.45,11.61,11.61,0,0,1-10.11,6A11.9,11.9,0,0,1,14.94,25.88a11.91,11.91,0,0,1,11.67-12,11.64,11.64,0,0,1,10.11,6l0,.06a1.11,1.11,0,0,0,1.52.37,1.18,1.18,0,0,0,.42-1.58,13.9,13.9,0,0,0-12.08-7.18A14.15,14.15,0,0,0,12.68,25.89,14.15,14.15,0,0,0,26.62,40.26a13.86,13.86,0,0,0,12.06-7.19A1.17,1.17,0,0,0,38.28,31.49Z"/><path class="cls-1" d="M42.7,24.94,39.48,22.6a1.18,1.18,0,0,0-.68-.2,1.14,1.14,0,0,0-1.1,1.15v1.18H22.55a1.16,1.16,0,0,0,0,2.31H37.7v1.18A1.16,1.16,0,0,0,38,29a1.1,1.1,0,0,0,.8.34h0a1.07,1.07,0,0,0,.64-.21l3.22-2.33a1,1,0,0,0,.23-.24,1.18,1.18,0,0,0,.23-.87A1.22,1.22,0,0,0,42.7,24.94Z"/></svg>