<?xml version="1.0" encoding="UTF-8"?><svg id="a" xmlns="http://www.w3.org/2000/svg" viewBox="0 0 52 51"><defs><style>.e{fill:#322b3a;}</style></defs><g id="b"><path id="c" class="e" d="M42.06,14.04c-1.7-1.71-3.97-2.66-6.39-2.67l-19.15-.06c-4.99-.01-9.05,4.03-9.07,9.02l-.03,10.23c0,2.42,.93,4.69,2.63,6.4,1.32,1.33,2.98,2.2,4.79,2.52,.52,.09,1.06,.14,1.6,.14l19.15,.06c4.99,.01,9.05-4.03,9.07-9.02v-.56h.01v-4.45l.02-5.21c0-2.42-.93-4.69-2.63-6.4Zm.18,14.88H25.47c-1.89,0-3.42-1.53-3.42-3.42s1.53-3.42,3.42-3.42h16.78l-.02,6.84Zm.02-8.03H25.47c-2.54,0-4.6,2.06-4.6,4.6s2.06,4.6,4.6,4.6h16.76v.56c-.01,3.65-2.99,6.61-6.63,6.59l-19.15-.06c-1.77,0-3.43-.7-4.67-1.95-1.25-1.25-1.93-2.92-1.92-4.68l.03-10.23c.01-3.65,2.99-6.6,6.63-6.59l19.15,.06c1.77,0,3.42,.7,4.67,1.95,1.25,1.25,1.93,2.92,1.92,4.68v.46Z"/><path id="d" class="e" d="M23.41,25.5c0,1.12,.91,2.04,2.04,2.04s2.04-.91,2.04-2.04-.91-2.04-2.04-2.04-2.04,.91-2.04,2.04Z"/></g></svg>