<svg id="Calque_1" data-name="Calque 1" xmlns="http://www.w3.org/2000/svg" viewBox="0 0 52 51"><defs><style>.cls-1{fill:#322b3a;}</style></defs><g id="HOME_ICONE" data-name="HOME ICONE"><g id="CB_1" data-name="CB 1"><g id="FORME"><path id="Tracé_290" data-name="Tracé 290" class="cls-1" d="M36.2,39.84l-20.55-.11A9.69,9.69,0,0,1,6,30l0-9.21a9.7,9.7,0,0,1,9.75-9.63h0l20.55.11A9.69,9.69,0,0,1,46,21l0,9.21a9.7,9.7,0,0,1-9.75,9.63ZM15.94,13.17a7.76,7.76,0,0,0-7.8,7.7l-.05,9.07a7.75,7.75,0,0,0,7.72,7.78h0l20.25.11a7.76,7.76,0,0,0,7.8-7.7l0-9.07a7.75,7.75,0,0,0-7.72-7.78h0Z"/><path id="Tracé_291" data-name="Tracé 291" class="cls-1" d="M18.81,27.75H17.46A3.79,3.79,0,0,1,13.67,24v-.17A3.8,3.8,0,0,1,17.46,20h1.35a3.8,3.8,0,0,1,3.8,3.8V24A3.8,3.8,0,0,1,18.81,27.75Zm-1.35-5.94a2,2,0,0,0-2,2V24a2,2,0,0,0,2,2h1.35a2,2,0,0,0,2-2v-.17a2,2,0,0,0-2-2Z"/><path id="Tracé_292" data-name="Tracé 292" class="cls-1" d="M36.64,33.64H14.87a.77.77,0,0,1-.79-.77h0a.77.77,0,0,1,.78-.78H36.64a.77.77,0,0,1,.78.77h0a.77.77,0,0,1-.78.77Z"/></g></g></g></svg>