<svg xmlns="http://www.w3.org/2000/svg" viewBox="0 0 749.28 162.64"><defs><style>.cls-1{fill:#e43725;}</style></defs><g id="Calque_2" data-name="Calque 2"><g id="LOGO"><g id="PCS"><path class="cls-1" d="M23.71,162.64A23.72,23.72,0,0,1,0,138.94V23.72A23.72,23.72,0,0,1,23.71,0h192a23.74,23.74,0,0,1,23.7,23.72V68.4a23.72,23.72,0,0,1-23.7,23.72H40.05a10.91,10.91,0,1,1,0-21.81H215.71a1.92,1.92,0,0,0,1.92-1.91V23.72a1.92,1.92,0,0,0-1.92-1.9h-192a1.93,1.93,0,0,0-1.93,1.9V138.94a1.93,1.93,0,0,0,1.93,1.91,10.9,10.9,0,0,1,0,21.79Z"/><path class="cls-1" d="M470.64,162.64h-192a23.73,23.73,0,0,1-23.67-23.7V23.72A23.73,23.73,0,0,1,278.6,0h192a23.72,23.72,0,0,1,23.7,23.72,10.9,10.9,0,1,1-21.79,0,1.91,1.91,0,0,0-1.91-1.9h-192a1.93,1.93,0,0,0-1.9,1.9V138.94a1.93,1.93,0,0,0,1.9,1.91h192a1.92,1.92,0,0,0,1.91-1.91,10.9,10.9,0,1,1,21.79,0,23.72,23.72,0,0,1-23.7,23.7Z"/><path class="cls-1" d="M725.57,70.31h-192a1.9,1.9,0,0,1-1.91-1.91V23.72a1.91,1.91,0,0,1,1.91-1.9h192a1.91,1.91,0,0,1,1.91,1.9,10.9,10.9,0,1,0,21.8,0A23.75,23.75,0,0,0,725.57,0h-192a23.73,23.73,0,0,0-23.71,23.72V68.4a23.72,23.72,0,0,0,23.71,23.72h192A1.91,1.91,0,0,1,727.48,94v44.93a1.92,1.92,0,0,1-1.91,1.91h-192a1.91,1.91,0,0,1-1.91-1.91,10.9,10.9,0,0,0-21.8,0,23.73,23.73,0,0,0,23.71,23.7h192a23.75,23.75,0,0,0,23.71-23.7V94A23.75,23.75,0,0,0,725.57,70.31Zm12.82-55.63a9.05,9.05,0,1,1-9.07,9A9.07,9.07,0,0,1,738.39,14.68Z"/><path class="cls-1" d="M739.82,24.37c1.57-.18,2.72-.9,2.72-2.75,0-2.17-1.33-3-3.85-3h-3.78V28.84h1.69V24.46h1.5l2.57,4.38h2ZM736.6,23V20h2.09c1,0,2.15.24,2.15,1.45,0,1.38-1,1.56-2.17,1.56Z"/></g></g></g></svg>