<svg id="Calque_1" data-name="Calque 1" xmlns="http://www.w3.org/2000/svg" viewBox="0 0 52 51"><defs><style>.cls-1{fill:#fff;}</style></defs><path class="cls-1" d="M40.56,40.07a15.2,15.2,0,0,0-7.3-8.87,12.33,12.33,0,0,1-1.79,1.14,13.38,13.38,0,0,1,7.17,7.73,19.83,19.83,0,0,1-25.53.82,13.5,13.5,0,0,1,7-8.35,12.93,12.93,0,0,1-1.83-1.08A15.31,15.31,0,0,0,11.19,41l-.14.55.44.37A21.66,21.66,0,0,0,40.31,41l.41-.39Z"/><path class="cls-1" d="M13.54,23.3a12.67,12.67,0,0,0,24.71-3.93h0a11.2,11.2,0,0,0-.07-1.3,15.17,15.17,0,0,0-.92-6.37C33.57,1.46,19,2.67,15,8.85l.06.07A4.79,4.79,0,0,0,14,10C11.12,13.85,12,21.2,13.55,23.38,13.54,23.35,13.55,23.32,13.54,23.3Zm3.68,1.32c.18.16.36,0,.3-.2-.66-2.69,5.47-4,3.62-7.18a5,5,0,0,1-.43-1.18c.23.26.45.53.69.79,3.72,4.09,10.23-3.26,14.53-.74a10.85,10.85,0,0,1-10.35,14.1,10.84,10.84,0,0,1-10.73-9.32C16.21,20.77,16.74,24.22,17.22,24.62Z"/></svg>