<svg id="Calque_1" data-name="Calque 1" xmlns="http://www.w3.org/2000/svg" viewBox="0 0 52 51"><defs><style>.cls-1{fill:#e94560;}</style></defs><path class="cls-1" d="M36.35,18.36l-9.18-.05V6.45l4.36,4.22a.72.72,0,0,0,1,0,.68.68,0,0,0,0-1l0,0L27,4.26a.74.74,0,0,0-1,0l-5.6,5.42a.69.69,0,0,0,0,1l0,0a.76.76,0,0,0,1,0l4.36-4.23V18.3l-9.92-.05a9.7,9.7,0,0,0-9.75,9.64l0,9.24a9.7,9.7,0,0,0,9.65,9.75L36.2,47A9.7,9.7,0,0,0,46,37.34l0-9.23A9.7,9.7,0,0,0,36.35,18.36Zm7.51,18.9A7.76,7.76,0,0,1,36.06,45l-20.25-.11a7.77,7.77,0,0,1-7.72-7.8L8.14,28a7.77,7.77,0,0,1,7.8-7.72l9.78.06V30.48a.72.72,0,0,0,.72.7.73.73,0,0,0,.73-.71V20.32l9,.05a7.76,7.76,0,0,1,7.72,7.8Z"/></svg>