<svg id="Calque_1" data-name="Calque 1" xmlns="http://www.w3.org/2000/svg" viewBox="0 0 325 310"><defs><style>.cls-1{fill:#dbf4ff;}.cls-2{fill:#fff;}.cls-3{fill:#1d132d;}</style></defs><g id="COUPON_IMG" data-name="COUPON IMG"><path id="Tracé_282" data-name="Tracé 282" class="cls-1" d="M297,159.88c16.22,123.9-69.71,128.76-155,144S17.75,218.75,26.92,144A136.28,136.28,0,0,1,178.8,25.38h0C253.51,34.55,280.8,36,297,159.88Z"/><g id="Calque_2" data-name="Calque 2"><g id="Groupe_79" data-name="Groupe 79"><g id="Groupe_77" data-name="Groupe 77"><path id="Tracé_265" data-name="Tracé 265" class="cls-2" d="M79.48,211.83C99,149.47,75.9,87.11,106.61,24.75q3.15,6.42,7,12.84,11.81-6.09,24.22-12.18a196,196,0,0,0,10.45,16.7q10.56-5.46,21.61-10.91a198.82,198.82,0,0,0,10.79,18.23Q189,42.82,197.85,36.2c3.6,5.56,7.59,11.13,11.88,16.69q9.74-3.91,19.68-7.84c-20.34,62.87,3.35,125.74-27.61,188.61Q141.67,222.74,79.48,211.83Z"/></g><g id="Groupe_78" data-name="Groupe 78"><path id="Tracé_266" data-name="Tracé 266" class="cls-3" d="M200.24,236.55Q140.4,225.68,78.62,214.81c-3-.53-4.7-3.5-3.83-6.62C92.19,145.5,71.18,82.81,99.65,20.11a8.52,8.52,0,0,1,5.78-4.62c2.44-.52,4.48.38,5.24,2.28q2.63,6.47,5.93,12.94,8.09-5,16.56-10c3-1.77,6.54-1.13,7.62,1.37,2.09,4.73,4.45,9.45,7,14.18q7.89-5,16.13-10c2.92-1.77,6.49-1.13,7.69,1.38q3.44,7.08,7.62,14.17,7.69-5,15.73-10c2.84-1.77,6.43-1.13,7.74,1.38,2.49,4.72,5.23,9.45,8.17,14.17q6.85-4.58,14-9.15a5.78,5.78,0,0,1,6.4-.17,5.25,5.25,0,0,1,1.87,5.83c-17.4,62.69,3.6,125.38-24.86,188.07C206.86,235,203.18,237.08,200.24,236.55Zm-115.3-32q58.95,10.24,116.48,20.51C224.71,167,208.2,108.88,221.89,50.77q-4.59,3.1-9.06,6.21a5.8,5.8,0,0,1-8-1.37q-4.77-7.09-8.94-14.18-7.69,5-15.07,10A5.73,5.73,0,0,1,173,50.08c-3-4.72-5.86-9.45-8.44-14.17q-7.89,5-15.44,10c-2.65,1.77-6.34,1.13-7.86-1.37-2.87-4.73-5.52-9.45-7.91-14.18q-8.1,5-15.82,10c-2.71,1.77-6.38,1.13-7.82-1.38q-2.49-4.38-4.72-8.78c-21.78,58.11-5.11,116.22-20,174.34ZM212.76,50.22Zm-4.95-.86h0Zm-31.72-5.52h0Zm-31.52-5.52Zm-31.3-5.53ZM181,44.69Zm-31.54-5.52Zm-31.34-5.53Zm76.11,4.86ZM162.93,33Zm-31.08-5.52Zm4.82.86Zm62.47,11ZM167.8,33.83h0Z"/></g></g><g id="stickers"><circle id="Ellipse_10" data-name="Ellipse 10" class="cls-3" cx="151.31" cy="91.55" r="26.45"/><path id="Tracé_279" data-name="Tracé 279" class="cls-2" d="M139.88,98.85a2.65,2.65,0,0,1-2.14-3.06l2.2-12.63A2.63,2.63,0,0,1,143,81l21.06,3.66a2.65,2.65,0,0,1,2.14,3.06l-.85,4.9a2.64,2.64,0,0,1-3.05,2.14L143,91.43A1.23,1.23,0,0,1,142,90a1.2,1.2,0,0,1,1.4-1h0l19.26,3.35a.21.21,0,0,0,.25-.17l.85-4.9a.21.21,0,0,0-.17-.24l-21-3.67a.21.21,0,0,0-.25.17l-2.2,12.63a.22.22,0,0,0,.18.25,1.21,1.21,0,0,1-.42,2.39Z"/></g></g></g></svg>