<svg id="Calque_1" data-name="Calque 1" xmlns="http://www.w3.org/2000/svg" xmlns:xlink="http://www.w3.org/1999/xlink" viewBox="0 0 397 310"><defs><style>.cls-1{fill:#dbf4ff;}.cls-2{fill:#24202c;}.cls-3{fill:url(#Dégradé_sans_nom_7);}.cls-4,.cls-9{fill:#fff;}.cls-5{fill:#322b3a;opacity:0.2;}.cls-5,.cls-9{isolation:isolate;}.cls-6{fill:#ea534d;}.cls-7{fill:url(#Dégradé_sans_nom_2);}.cls-8{fill:#dedddc;}.cls-9{opacity:0.08;}.cls-10{fill:url(#Dégradé_sans_nom_6);}</style><linearGradient id="Dégradé_sans_nom_7" x1="-641.09" y1="-114.12" x2="-641.09" y2="-115.12" gradientTransform="matrix(226.35, -48.14, -28.4, -133.53, 141982.55, -45991.87)" gradientUnits="userSpaceOnUse"><stop offset="0" stop-color="#34eaad"/><stop offset="1" stop-color="#1a3a7a"/></linearGradient><linearGradient id="Dégradé_sans_nom_2" x1="-637.97" y1="-111.45" x2="-637.97" y2="-111.44" gradientTransform="matrix(121.7, 102.16, 121.85, -145.16, 91120.8, 49528.55)" gradientUnits="userSpaceOnUse"><stop offset="0" stop-color="#131016"/><stop offset="0.46" stop-color="#2e2935"/><stop offset="1" stop-color="#0f0c11"/></linearGradient><linearGradient id="Dégradé_sans_nom_6" x1="-660.42" y1="-109.6" x2="-660.42" y2="-110.6" gradientTransform="matrix(-54.76, -36.94, -76.88, 113.98, -44481.45, -11721.21)" gradientUnits="userSpaceOnUse"><stop offset="0" stop-color="#34beea"/><stop offset="0.21" stop-color="#2fd29b"/><stop offset="1" stop-color="#1a7658"/><stop offset="1" stop-color="#1a7557"/></linearGradient></defs><g id="CB_RECHARGEMENT_ICONE" data-name="CB RECHARGEMENT ICONE"><path id="Tracé_282" data-name="Tracé 282" class="cls-1" d="M272.35,263.54C174.67,344,124.41,272.77,65.62,207.71S72,55.35,141,23.15A138,138,0,0,1,324.39,89.88h0C356.6,158.94,370,183.14,272.35,263.54Z"/><g id="CB_BLEU" data-name="CB BLEU"><g id="Groupe_1243" data-name="Groupe 1243"><path id="Tracé_285" data-name="Tracé 285" class="cls-2" d="M229.72,146.05,118.53,119.83a53.21,53.21,0,0,0-52.39,16.94L19.47,190.64A17,17,0,0,0,28.4,218.3l111.2,26.22A53.19,53.19,0,0,0,192,227.58l46.68-53.87a17,17,0,0,0-8.95-27.66Z"/><path id="Tracé_286" data-name="Tracé 286" class="cls-3" d="M228.55,140.56,117.36,114.35A53.15,53.15,0,0,0,65,131.28L18.3,185.16a17,17,0,0,0,8.94,27.66L138.44,239a53.18,53.18,0,0,0,52.39-16.93l46.67-53.88a17,17,0,0,0-8.95-27.66Z"/><path id="Tracé_287" data-name="Tracé 287" class="cls-4" d="M97.2,154.42,77.62,149.8a9.36,9.36,0,0,0-9.22,3l-8.22,9.48a3,3,0,0,0,.3,4.22,3,3,0,0,0,1.27.65l19.58,4.62a9.36,9.36,0,0,0,9.22-3l8.22-9.48a3,3,0,0,0-.3-4.22,2.91,2.91,0,0,0-1.27-.65Z"/><path id="Tracé_288" data-name="Tracé 288" class="cls-5" d="M36.13,188l-7,5.58,134.68,31,6.71-5.35C170.64,219.12,36.13,188,36.13,188Z"/></g><g id="Groupe_1012" data-name="Groupe 1012"><g id="Groupe_981" data-name="Groupe 981"><path id="Tracé_1027" data-name="Tracé 1027" class="cls-4" d="M149.93,183.52a2.38,2.38,0,0,1-1.73.92,40,40,0,0,1-10.18-.8c-10.75-2.23-13.4-9.1-3.34-18.67,9.61-9.12,23.77-13.76,34.91-11.49a16.55,16.55,0,0,1,6.65,2.54c.36.27.15.8-.43,1.2l-1.92,1.32a2,2,0,0,1-2,.29,14,14,0,0,0-5.38-2.13c-8.48-1.72-18.67,1.51-26.66,9.18-7.44,7.16-6.87,12.87,2.35,14.78a30.94,30.94,0,0,0,7.68.55c.8-.05,1.19.38.86.91Z"/><path id="Tracé_1028" data-name="Tracé 1028" class="cls-4" d="M182.26,158a2.47,2.47,0,0,1,1.76-.7,58.21,58.21,0,0,1,8,1.06c4.61.93,7,2.2,7.78,4.16.8,1.54.29,3.55-1.87,5.91-2.66,2.89-7.31,5-12.24,5.32l-.08.09c2.82,1.43,4.76,4.62.7,9.08a20.09,20.09,0,0,1-8.66,5.37c-4.39,1.37-9.48,1.38-15.66.1a63.52,63.52,0,0,1-6.35-1.62c-.53-.17-.59-.64-.15-1.1Zm-5.46,11.49c-.47.5-.36,1,.25,1.12l3.19.65c5,1,9.92-.51,12.59-3.39,3.26-3.51,1.34-5.55-3.35-6.49a28.31,28.31,0,0,0-3.3-.52,2.43,2.43,0,0,0-1.79.7Zm-13.73,14.37c-.44.46-.38.94.17,1.1.79.23,1.8.46,3,.71,5,1,11,.53,15-3.84,3.78-4.09,1-6.66-4.17-7.73l-2.84-.58a2.38,2.38,0,0,0-2,.67Z"/></g></g></g><g id="CB_BLACK" data-name="CB BLACK"><g id="Groupe_1243-2" data-name="Groupe 1243"><path id="Tracé_285-2" data-name="Tracé 285" class="cls-6" d="M364,74.45,252.75,47.79a53.27,53.27,0,0,0-52.52,16.77l-46.94,53.76a17,17,0,0,0,8.86,27.73l111.24,26.66a53.25,53.25,0,0,0,52.52-16.77l46.93-53.76A17,17,0,0,0,364,74.45Z"/><path id="Tracé_286-2" data-name="Tracé 286" class="cls-7" d="M363.86,67.89l-112-26.84A53.6,53.6,0,0,0,199,57.94l-47.27,54.13A17.12,17.12,0,0,0,160.59,140l112,26.84A53.6,53.6,0,0,0,325.5,150l47.27-54.14a17.13,17.13,0,0,0-8.91-27.92Z"/><g id="Tracé_287-2" data-name="Tracé 287"><path id="Tracé_372" data-name="Tracé 372" class="cls-4" d="M219.53,99.4h0a9.77,9.77,0,0,1-4.37-.06l-19.72-4.73a3.57,3.57,0,0,1-2.64-4.31,3.47,3.47,0,0,1,.78-1.51l8.32-9.53a10,10,0,0,1,5.49-3.21,9.92,9.92,0,0,1,4.37.06l19.72,4.73a3.56,3.56,0,0,1,2.64,4.3,3.51,3.51,0,0,1-.78,1.52L225,96.19A10,10,0,0,1,219.53,99.4Z"/><path id="Tracé_373" data-name="Tracé 373" class="cls-8" d="M207.5,76.59a9.48,9.48,0,0,0-5.18,3L194,89.16a3,3,0,0,0,1.57,4.91l19.72,4.73a9.45,9.45,0,0,0,9.31-3l8.32-9.53a3,3,0,0,0-.29-4.26,2.91,2.91,0,0,0-1.28-.66l-19.72-4.72a9.44,9.44,0,0,0-4.13-.07m-.23-1.09.23,1.09-.23-1.09h0a10.44,10.44,0,0,1,4.62.07l19.72,4.72a4.13,4.13,0,0,1,3.06,5,4.24,4.24,0,0,1-.91,1.76l-8.32,9.53A10.54,10.54,0,0,1,215,99.88l-19.72-4.72a4.13,4.13,0,0,1-3.06-5,4.24,4.24,0,0,1,.91-1.76l8.32-9.53A10.6,10.6,0,0,1,207.27,75.5Z"/></g><path id="Tracé_288-2" data-name="Tracé 288" class="cls-9" d="M175.67,115.31l-7.09,5.61,120.74,28.62,6.79-5.36C296.23,144.08,175.67,115.31,175.67,115.31Z"/><g id="PCS"><g id="Groupe_9" data-name="Groupe 9"><g id="Groupe_7" data-name="Groupe 7"><path id="Tracé_7" data-name="Tracé 7" class="cls-6" d="M247.64,104.48c-1.25-.28-1.28-1.51-.09-2.74l10.6-10.88a5.46,5.46,0,0,1,4.39-1.73h0l18,4.12c1.22.28,1.27,1.51.11,2.74l-4,4.23a5.39,5.39,0,0,1-4.36,1.73l-16.66-3.78c-.57-.13-.59-.7,0-1.26a2.54,2.54,0,0,1,2-.8h0l16.63,3.77a.43.43,0,0,0,.35-.14l4-4.22c.1-.1.09-.2,0-.23l-18.06-4.1a.45.45,0,0,0-.35.13l-10.57,10.87c-.09.1-.09.2,0,.23.57.13.59.69,0,1.26a2.52,2.52,0,0,1-2,.8Z"/><path id="Tracé_8" data-name="Tracé 8" class="cls-6" d="M290.42,114.09,272,110c-1.25-.28-1.33-1.51-.16-2.74l10.25-10.9a5.31,5.31,0,0,1,4.33-1.73l18,4.12c1.22.28,1.3,1.51.18,2.74h0a2.38,2.38,0,0,1-2,.8c-.57-.13-.6-.7-.08-1.26.08-.11.07-.2,0-.23l-18.06-4.11a.43.43,0,0,0-.35.14L274,107.68c-.09.09-.08.19,0,.22L292.3,112a.43.43,0,0,0,.35-.14,2.43,2.43,0,0,1,2-.8c.57.14.61.7.1,1.27a5.21,5.21,0,0,1-4.31,1.73Z"/></g><g id="Groupe_8" data-name="Groupe 8"><path id="Tracé_9" data-name="Tracé 9" class="cls-6" d="M322.52,110.83l-18.17-4.12c-.1,0-.11-.12,0-.23h0l3.83-4.22a.41.41,0,0,1,.34-.14h0l18.06,4.11c.1,0,.11.12,0,.22-.51.56-.45,1.14.11,1.27a2.3,2.3,0,0,0,1.93-.8c1.09-1.24,1-2.47-.25-2.75l-18-4.11a5.12,5.12,0,0,0-4.26,1.73L302.28,106c-1.13,1.24-1,2.47.21,2.75l18.21,4.12c.1,0,.11.13,0,.23L317,117.36a.41.41,0,0,1-.34.14l-18.33-4.12c-.1,0-.11-.12,0-.23h0c.51-.56.47-1.13-.11-1.26a2.4,2.4,0,0,0-2,.8h0c-1.12,1.23-1,2.46.23,2.75l18.38,4.13a5,5,0,0,0,4.24-1.73l3.74-4.26C323.87,112.34,323.75,111.11,322.52,110.83Zm5.84-5c.48.11.51.58.1,1a1.91,1.91,0,0,1-1.61.67c-.48-.11-.51-.58-.1-1.06a1.93,1.93,0,0,1,1.61-.66Z"/></g></g><path id="Tracé_10" data-name="Tracé 10" class="cls-6" d="M327.7,106.78a.55.55,0,0,0,.48-.2c.18-.2.13-.32-.11-.37l-.36-.08-.85,1,.16,0,.37-.41.14,0-.13.47.18,0Zm-.2-.2.25-.28.2,0c.09,0,.18.07.08.19a.28.28,0,0,1-.33.09Z"/></g><rect id="Rectangle_58" data-name="Rectangle 58" class="cls-8" x="212.63" y="71.03" width="1.11" height="31.69" transform="translate(82.27 276.23) rotate(-77.51)"/><rect id="Rectangle_59" data-name="Rectangle 59" class="cls-8" x="194.7" y="85.84" width="24.01" height="1.11" transform="translate(5.2 184.32) rotate(-48.6)"/><rect id="Rectangle_60" data-name="Rectangle 60" class="cls-8" x="205.68" y="87.79" width="24.01" height="1.11" transform="translate(7.45 193.21) rotate(-48.6)"/></g></g><path id="Soustraction_7" data-name="Soustraction 7" class="cls-10" d="M194,71.24a6,6,0,0,1,1,.87,4.52,4.52,0,0,1,1.29,3.38l-2.91,36.37a3.74,3.74,0,0,1-3.56,3.36,5.85,5.85,0,0,1-4.9-1.87l-11.82-12.79A104.55,104.55,0,0,0,138.21,149,115.35,115.35,0,0,0,132,186.4c-6.65-1.75-13.31-3.28-19.81-4.55a129,129,0,0,1,7-41.76A117.3,117.3,0,0,1,159,85.23L145.9,71.09a3.92,3.92,0,0,1,3.63-6.72l42,5.89A6.09,6.09,0,0,1,194,71.24Z"/></g></svg>