<svg id="Calque_1" data-name="Calque 1" xmlns="http://www.w3.org/2000/svg" xmlns:xlink="http://www.w3.org/1999/xlink" viewBox="0 0 325 310"><defs><style>.cls-1{fill:#dbf4ff;}.cls-17,.cls-2{isolation:isolate;}.cls-2{opacity:0.1;}.cls-3{fill:#f8ba7e;}.cls-4{fill:#d29e75;}.cls-5{fill:#2d2424;}.cls-6{fill:#7c7c7c;}.cls-7{fill:#afafaf;}.cls-8{fill:#969696;}.cls-9{fill:#2eae9b;}.cls-10{fill:#fff;}.cls-11{fill:#a4c852;}.cls-12{fill:#fac895;}.cls-13{fill:#f4a06f;}.cls-14{fill:#781916;}.cls-15,.cls-17{fill:#322b3a;}.cls-16{fill:url(#Dégradé_sans_nom_5);}.cls-17{opacity:0.2;}</style><linearGradient id="Dégradé_sans_nom_5" x1="-1054.9" y1="-111.98" x2="-1054.9" y2="-112.98" gradientTransform="matrix(204.34, 21.56, 13.04, -123.54, 217154.9, 8989.74)" gradientUnits="userSpaceOnUse"><stop offset="0" stop-color="#1bb6b7"/><stop offset="1" stop-color="#34eaad"/></linearGradient></defs><g id="ILLUSTRATION_BENEF" data-name="ILLUSTRATION BENEF"><path id="Tracé_282" data-name="Tracé 282" class="cls-1" d="M30.86,113.6c32.55-117,127.64-98.77,209.73-80S319.51,157,282.92,220.36a132.49,132.49,0,0,1-181,48.5C38.55,232.27-1.68,230.65,30.86,113.6Z"/><g id="Illustration"><g id="Groupe_980" data-name="Groupe 980"><path id="Ellipse_87" data-name="Ellipse 87" class="cls-2" d="M209.75,191.81c.69-2.16,17.73-5.81,38.07-8.15s36.26-2.48,35.57-.32-17.73,5.81-38.07,8.15S209.06,194,209.75,191.81Z"/><g id="COUP"><path id="coup-2" class="cls-3" d="M254.55,122.68l1.75-4.15,5.64,2.38-1.71,4a1.72,1.72,0,0,0,.48,2l2.37,2c-8.6,10-14.68-5.29-14.68-5.29l4.25.24A2,2,0,0,0,254.55,122.68Z"/><path id="ombre_coup" data-name="ombre coup" class="cls-4" d="M258.26,122.48a24.12,24.12,0,0,0,2.63.93l-.73,1.73a29.85,29.85,0,0,1-3-.81,29,29,0,0,1-2.65-1.57l.75-1.79A23.92,23.92,0,0,0,258.26,122.48Z"/></g><g id="JAMBE_DROITE" data-name="JAMBE DROITE"><path id="Tracé_1013" data-name="Tracé 1013" class="cls-5" d="M290.59,183.69c.28,1.59-6,1.95-8.49,2.4s-4.65-.48-4.94-2.07,1.64-2.21,4.08-2.65S290.3,182.1,290.59,183.69Z"/><path id="Tracé_1014" data-name="Tracé 1014" class="cls-6" d="M283.25,182.92a4.18,4.18,0,0,1-7.28-3.36c1.75-11.79.45-19.5-3.75-22.31-6.14-4.1-18.77,1.7-22.71,4.06a4.18,4.18,0,1,1-4.29-7.17h0a58.36,58.36,0,0,1,10.81-4.8c8.67-2.8,15.68-2.47,20.83,1,7.18,4.8,9.66,15.05,7.38,30.48A4.15,4.15,0,0,1,283.25,182.92Z"/></g><path id="BASSIN" class="cls-7" d="M243.84,150.56c1.59.86,10.32-1.68,12.46,1.35s-.8,8-4.53,9.28c-10.66,3.58-11.8-2.65-11.83-6.36C239.92,151.43,240.41,148.71,243.84,150.56Z"/><path id="Tracé_1015" data-name="Tracé 1015" class="cls-4" d="M273.66,147.15s-8.4-2.48-11.71-14.64c0,0-.16-1.17.63-1.41a.74.74,0,0,1,.91.52c.64,2.25,3.64,11.37,10.41,13.62C273.9,145.24,273.87,147.38,273.66,147.15Z"/><g id="MAIN_GAUCHE" data-name="MAIN GAUCHE"><path id="Tracé_1016" data-name="Tracé 1016" class="cls-4" d="M272.76,146.38c-.16.78.61.71,1.61.8s1.87.31,2-.47-.52-1.48-1.53-1.57A1.92,1.92,0,0,0,272.76,146.38Z"/></g><g id="JAMBE_GAUCHE" data-name="JAMBE GAUCHE"><path id="Tracé_1017" data-name="Tracé 1017" class="cls-5" d="M210.52,187c-3.2,1.72-5,4.62-4,6.38s4.24,1.71,7.44,0,3.16-3.54,2.22-5.3S213.72,185.24,210.52,187Z"/><path id="Tracé_1018" data-name="Tracé 1018" class="cls-7" d="M209,190.85a4.17,4.17,0,0,0,3.06,2.52,4.3,4.3,0,0,0,4.83-3c8.27-25.16,23.12-28.05,28.81-28.18a3,3,0,0,0,2.88-2.29l.88-3.49-1.31-.33c.85-4.72-3.73-2.41-8.42-1.42a32.42,32.42,0,0,0-6.43,2.09c-7.59,3.38-18,11.53-24.41,31.2A4.11,4.11,0,0,0,209,190.85Z"/></g><path id="Tracé_1019" data-name="Tracé 1019" class="cls-8" d="M244.29,128.31c-.3,2.33-1.58,4.09-2.86,3.92s-2.1-2.18-1.8-4.51,1.58-4.08,2.86-3.92S244.59,126,244.29,128.31Z"/><path id="Tracé_1020" data-name="Tracé 1020" class="cls-3" d="M203.07,100.35c15,14.14,33.35,25.1,53.37,30.48-13.95.07-69.86-9.24-66.93-27.56a8.16,8.16,0,0,1,13.56-2.92Z"/><path id="Tracé_1021" data-name="Tracé 1021" class="cls-9" d="M266,135l-3,1.32a.88.88,0,0,1-1.15-.45.9.9,0,0,1-.07-.37l.16-5.35.11-.25c2.75,0,4,1.28,4,3.45Z"/><g id="Groupe_977" data-name="Groupe 977"><path id="Tracé_1022" data-name="Tracé 1022" class="cls-9" d="M241.85,123.88h-.06v0Z"/></g><g id="Groupe_979" data-name="Groupe 979"><g id="Groupe_978" data-name="Groupe 978"><path id="Tracé_1023" data-name="Tracé 1023" class="cls-10" d="M261.75,135.45a.86.86,0,0,0,.84.89.9.9,0,0,0,.37-.07l3-1.32,0-1.65a3.58,3.58,0,0,0-.36-1.79,1.08,1.08,0,0,0-.16-.3l-.27-.35a17,17,0,0,0-1.73-1.87,1.23,1.23,0,0,0-1.75,0,1.29,1.29,0,0,0-.27.45,2.34,2.34,0,0,1-.09.24c-.95,2.27-2.68,2.34-5.44,1.17s-5.52-3.13-4.56-5.39c0-.1.09-.2.14-.3a1.21,1.21,0,0,0-.54-1.63,1,1,0,0,0-.42-.12c-.52-.06-1.06-.1-1.61-.14a1.28,1.28,0,0,0-.58.11l-.06,0-5.72.35c1.24.24,2,2.22,1.71,4.5a8,8,0,0,1-.24,1.18c-.21.45-.43.93-.64,1.44a3.05,3.05,0,0,1-1.09,1.11l.73-.21a69.56,69.56,0,0,0-4.13,21,1.15,1.15,0,0,0,1.09,1.21,1.21,1.21,0,0,0,.42-.05c2.68-.87,7.52,2.36,14.6,2,2.41-.13,2.71-2.29,2-4.6a15.36,15.36,0,0,1,4.72-16Z"/><path id="Tracé_1024" data-name="Tracé 1024" class="cls-11" d="M241.79,123.9l.06,0h-.06Z"/></g></g><g id="TETE"><path id="FACE" class="cls-12" d="M250.32,107.76a13.31,13.31,0,0,0,10.4,15.69c7.08,1.28,13.9-3.67,15.24-11.06s-3.32-14.41-10.4-15.7S251.66,100.37,250.32,107.76Z"/><path id="Tracé_1025" data-name="Tracé 1025" class="cls-13" d="M255.45,118c2.38,2.26,4.47.58,4.5.56a.41.41,0,0,0,.05-.58.4.4,0,0,0-.58-.06h0c-.07,0-1.57,1.21-3.4-.53l0,0a.42.42,0,0,0-.59,0,.41.41,0,0,0,0,.56Z"/><path id="Tracé_1026" data-name="Tracé 1026" class="cls-14" d="M275.39,116c.33-.64.63-1.2.88-1.74a1.63,1.63,0,0,0,1.32-1.9,2.78,2.78,0,0,0-.12-.38.21.21,0,0,1,0-.06,1.62,1.62,0,0,0,.71-2.11.51.51,0,0,0-.09-.16,3.12,3.12,0,0,0-.15-4.06,1.65,1.65,0,0,0-.44-2,1.49,1.49,0,0,0-.3-.18,1.63,1.63,0,0,0-.43-2,1.61,1.61,0,0,0-1.18-.33v0a1.66,1.66,0,0,0-.34-.49,1.58,1.58,0,0,0-1.86-1.07,1.63,1.63,0,0,0-.85-.58h0a1.69,1.69,0,0,0-1.08-.35,2.94,2.94,0,0,0-2.14-1,1.51,1.51,0,0,0-.27-.5,3.13,3.13,0,0,0-3.34-2.42,1.63,1.63,0,0,0-1.89-.9,1.2,1.2,0,0,0-.33.13,1.63,1.63,0,0,0-2.15-.82,1.68,1.68,0,0,0-.84.88,1.62,1.62,0,0,0-2.28.22,1.72,1.72,0,0,0-.33.68,1.71,1.71,0,0,0-.87,0,1.79,1.79,0,0,0-1.1.88,1.77,1.77,0,0,0-.3.31,1.42,1.42,0,0,0-.65,0,1.54,1.54,0,0,0-.77.47l-.21,0a1.7,1.7,0,0,0-.92,0,1.63,1.63,0,0,0-1.19,1.89h-.08a1.63,1.63,0,0,0,.36,3.2c-1.67,1.23-3.68,3.24-1.67,5.25.05,0,2.3-3.17,3.36-3,16.62,2.63,16.23,6.19,14.47,9.17a3.92,3.92,0,0,0,.58,4.85l0,0a1.78,1.78,0,0,1,.57,1.37,2.72,2.72,0,0,1-.45.94.29.29,0,0,0,.11.41.31.31,0,0,0,.41-.11c.8-1.3,2.29-3.2,3.42-1.64a.43.43,0,0,0,.61.1.26.26,0,0,0,.09-.09A22.32,22.32,0,0,0,275.39,116Z"/></g></g><rect id="pouce" class="cls-3" x="188.36" y="80.53" width="16.07" height="14.06" rx="6" transform="translate(55.25 249.78) rotate(-73)"/><g id="CB"><path id="Tracé_285" data-name="Tracé 285" class="cls-15" d="M152.14,201.78a52.38,52.38,0,0,0,47.77-25.68l35.69-60.46A16.73,16.73,0,0,0,222,90.43L109.66,84.7A52.36,52.36,0,0,0,61.9,110.38L26.2,170.84a16.74,16.74,0,0,0,13.56,25.22"/><path id="Tracé_286" data-name="Tracé 286" class="cls-16" d="M219.93,85.32,107.56,79.59A52.36,52.36,0,0,0,59.8,105.27L24.1,165.73A16.74,16.74,0,0,0,37.66,191L150,196.67A52.38,52.38,0,0,0,197.81,171l35.69-60.46a16.73,16.73,0,0,0-13.57-25.21Z"/><path id="Tracé_287" data-name="Tracé 287" class="cls-10" d="M97.3,112.41l-19.79-1a9.18,9.18,0,0,0-8.4,4.52l-6.29,10.64a2.94,2.94,0,0,0,1,4,3.08,3.08,0,0,0,1.35.41L85,132a9.22,9.22,0,0,0,8.4-4.52l6.29-10.64a3,3,0,0,0-1-4A2.88,2.88,0,0,0,97.3,112.41Z"/><path id="Tracé_288" data-name="Tracé 288" class="cls-17" d="M41.88,165.34,36.09,172l136,6.17,5.56-6.37C177.72,171.68,41.88,165.34,41.88,165.34Z"/><g id="Groupe_982" data-name="Groupe 982"><g id="Groupe_981" data-name="Groupe 981"><path id="Tracé_1027" data-name="Tracé 1027" class="cls-10" d="M164.33,147a2.2,2.2,0,0,1-1.42,1.07,35.92,35.92,0,0,1-9.25.72c-10-.47-13.31-6.26-5.64-16.27,7.33-9.55,19.37-15.71,29.68-15.26a15,15,0,0,1,6.33,1.34c.35.19.24.69-.22,1.13l-1.53,1.46a1.81,1.81,0,0,1-1.73.54,12.78,12.78,0,0,0-5.13-1.14c-7.84-.35-16.53,4-22.61,12-5.65,7.48-4.34,12.52,4.21,12.92a28.61,28.61,0,0,0,7-.59c.7-.16,1.12.17.9.7Z"/><path id="Tracé_1028" data-name="Tracé 1028" class="cls-10" d="M189.71,119.51a2.27,2.27,0,0,1,1.48-.88,52.61,52.61,0,0,1,7.32-.18c4.26.18,6.55,1,7.58,2.63.93,1.26.75,3.14-.85,5.56-2,3-5.86,5.49-10.22,6.51l-.06.1c2.73.87,4.92,3.47,1.91,8.05a18.31,18.31,0,0,1-7,6c-3.74,1.85-8.31,2.58-14,2.31a58.68,58.68,0,0,1-5.92-.56c-.5-.07-.62-.49-.29-1Zm-3.27,11.08c-.36.51-.19.94.37,1l3,.13c4.63.21,8.81-1.86,10.81-4.83,2.42-3.61.41-5.16-3.93-5.34a27.84,27.84,0,0,0-3,0,2.21,2.21,0,0,0-1.51.88Zm-10.28,14.83c-.33.48-.2.9.31,1,.74.09,1.68.16,2.79.21,4.65.22,10-1.09,12.94-5.57,2.81-4.2,0-6.12-4.84-6.34l-2.62-.12a2.16,2.16,0,0,0-1.67.87Z"/></g></g></g><g id="Main"><rect id="Rectangle_1552" data-name="Rectangle 1552" class="cls-3" x="145.16" y="80.6" width="14.06" height="12.06" rx="6"/><rect id="Rectangle_1553" data-name="Rectangle 1553" class="cls-3" x="166.34" y="83.75" width="27.93" height="14.06" rx="7" transform="translate(69.86 259.76) rotate(-83.56)"/><rect id="Rectangle_1554" data-name="Rectangle 1554" class="cls-3" x="154.08" y="82.43" width="26.57" height="14.07" rx="7" transform="translate(70.3 252.54) rotate(-87.36)"/><rect id="Rectangle_1555" data-name="Rectangle 1555" class="cls-3" x="147.69" y="79.73" width="21.48" height="14.07" rx="7" transform="translate(64.46 241.03) rotate(-87.36)"/></g><path id="Tracé_1029" data-name="Tracé 1029" class="cls-15" d="M59.76,81.22a1,1,0,0,1-.52-.15,1,1,0,0,1-.34-1.37h0A27.17,27.17,0,0,1,77.37,67.18a1,1,0,1,1,.37,2A25.15,25.15,0,0,0,60.62,80.74,1,1,0,0,1,59.76,81.22Z"/><path id="Tracé_1030" data-name="Tracé 1030" class="cls-15" d="M64.35,91.49a1,1,0,0,1-1-1,1,1,0,0,1,.15-.54A33.18,33.18,0,0,1,86,74.7a1,1,0,0,1,.37,2A31.11,31.11,0,0,0,65.21,91,1,1,0,0,1,64.35,91.49Z"/></g></g></svg>