<svg id="Calque_1" data-name="Calque 1" xmlns="http://www.w3.org/2000/svg" xmlns:xlink="http://www.w3.org/1999/xlink" viewBox="0 0 322 310"><defs><style>.cls-1{fill:#eb5947;}.cls-2,.cls-5{fill:#322b3a;}.cls-3{fill:url(#Dégradé_sans_nom_5);}.cls-4{fill:#fff;}.cls-5{isolation:isolate;opacity:0.2;}</style><linearGradient id="Dégradé_sans_nom_5" x1="-295.86" y1="-115.03" x2="-295.86" y2="-117.36" gradientTransform="matrix(114.86, 24.42, 14.76, -69.44, 35859.19, -703.31)" gradientUnits="userSpaceOnUse"><stop offset="0" stop-color="#1bb6b7"/><stop offset="1" stop-color="#34eaad"/></linearGradient></defs><g id="PCS_CARDS_IMAGE" data-name="PCS CARDS IMAGE"><g id="CB_BLACK" data-name="CB BLACK"><g id="Groupe_1243" data-name="Groupe 1243"><path id="Tracé_282" data-name="Tracé 282" class="cls-1" d="M247.78,236.11C177.69,321,122.93,268.56,61.9,222.73S42,91.5,95.69,52.52A120.08,120.08,0,0,1,263.42,79.1h0C302.4,132.76,317.88,151.21,247.78,236.11Z"/></g><path id="Tracé_285" data-name="Tracé 285" class="cls-2" d="M183.94,227.18a69.85,69.85,0,0,0,66.93-27.43l55.75-75.22a22.33,22.33,0,0,0-14.5-35.33L143.86,66A69.82,69.82,0,0,0,77,93.42L21.2,168.65A22.31,22.31,0,0,0,35.68,204"/><path id="Tracé_286" data-name="Tracé 286" class="cls-3" d="M290,82.13,141.79,58.94A69.85,69.85,0,0,0,74.87,86.35L19.12,161.58A22.31,22.31,0,0,0,33.6,196.91l148.27,23.21a69.86,69.86,0,0,0,66.92-27.43l55.75-75.22A22.33,22.33,0,0,0,290,82.13Z"/><path id="Tracé_287" data-name="Tracé 287" class="cls-4" d="M123.62,101,97.52,97a12.3,12.3,0,0,0-11.77,4.83L75.92,115a3.93,3.93,0,0,0,2.54,6.22l26.11,4.09a12.31,12.31,0,0,0,11.77-4.83l9.81-13.24a3.94,3.94,0,0,0-.79-5.5A4,4,0,0,0,123.62,101Z"/><path id="Tracé_288" data-name="Tracé 288" class="cls-5" d="M42.77,163.53l-8.62,8,179.5,27.07,8.25-7.68C222.05,190.82,42.77,163.53,42.77,163.53Z"/><g id="Groupe_982" data-name="Groupe 982"><g id="Groupe_981" data-name="Groupe 981"><path id="Tracé_1027" data-name="Tracé 1027" class="cls-4" d="M207.72,156.21a2.81,2.81,0,0,1-2,1.21,47.38,47.38,0,0,1-12.36-.32c-13.15-2-16.78-10.15-5.22-22.35,11.05-11.66,27.87-18.16,41.5-16.12a20.05,20.05,0,0,1,8.2,2.65c.45.3.23,1-.45,1.47l-2.23,1.72a2.39,2.39,0,0,1-2.36.48,16.75,16.75,0,0,0-6.66-2.23c-10.35-1.56-22.48,3-31.66,12.79-8.53,9.13-7.48,16,3.79,17.72a37.76,37.76,0,0,0,9.32.19c1-.11,1.46.38,1.11,1Z"/><path id="Tracé_1028" data-name="Tracé 1028" class="cls-4" d="M245.2,123.28a3,3,0,0,1,2.09-1,70.38,70.38,0,0,1,9.73.77c5.64.84,8.56,2.22,9.69,4.54,1.06,1.81.56,4.27-1.9,7.27a23,23,0,0,1-14.47,7.21l-.09.12c3.51,1.54,6,5.28,1.42,10.94a24.36,24.36,0,0,1-10.13,7,37.65,37.65,0,0,1-18.93,1.11,78.74,78.74,0,0,1-7.78-1.56c-.65-.17-.76-.73-.26-1.31Zm-5.88,14.25c-.54.63-.37,1.23.37,1.34l3.91.59a16.59,16.59,0,0,0,15-4.91c3.71-4.46,1.26-6.78-4.47-7.63a36.26,36.26,0,0,0-4-.41,3,3,0,0,0-2.12.95Zm-15.69,18.25c-.5.59-.39,1.17.28,1.32,1,.23,2.2.45,3.66.67,6.15.94,13.36-.06,18-5.59,4.3-5.19.8-8.13-5.54-9.08l-3.47-.53a2.89,2.89,0,0,0-2.33.94Z"/></g></g></g></g></svg>