<svg id="Calque_1" data-name="Calque 1" xmlns="http://www.w3.org/2000/svg" viewBox="0 0 52 51"><defs><style>.cls-1{fill:#322b3a;}</style></defs><path class="cls-1" d="M45.31,22.12a5.5,5.5,0,0,0-.43-.64A5.73,5.73,0,0,0,43.16,20L29,11.78l0,0,0,0-1.56-.85-1.32-.72h0l-1.32.72-1.56.86h0l0,0L9,20A5.79,5.79,0,0,0,9,30a5.73,5.73,0,0,0,2.83.75V33a8.31,8.31,0,0,0,8.31,8.3H32A8.3,8.3,0,0,0,40.24,33v-2.2h0a5.81,5.81,0,0,0,5.07-8.65ZM37.48,33a5.54,5.54,0,0,1-5.54,5.54H20.14A5.54,5.54,0,0,1,14.6,33v-2.9l.16-.08,11.29-6.52L37.35,30l.13.07Zm5.4-6.48A3,3,0,0,1,40.24,28a2.87,2.87,0,0,1-1.51-.4L26.05,20.28,13.37,27.61a3,3,0,1,1-3-5.27l14.15-8.18,1.56-.84h0l1.57.85,14.15,8.17A3,3,0,0,1,42.88,26.49Z"/></svg>