<svg id="Calque_1" data-name="Calque 1" xmlns="http://www.w3.org/2000/svg" viewBox="0 0 43 45"><defs><style>.cls-1{fill:#fff;}</style></defs><path id="Instagram" class="cls-1" d="M24.83,15.79c-.87,0-1.13,0-3.33,0s-2.46,0-3.33,0c-2.24.1-3.28,1.16-3.38,3.38,0,.87,0,1.13,0,3.33s0,2.46,0,3.33c.1,2.22,1.14,3.28,3.38,3.38.87,0,1.13.05,3.33.05s2.46,0,3.33-.05c2.24-.1,3.28-1.16,3.38-3.38,0-.87.05-1.13.05-3.33s0-2.46-.05-3.33c-.1-2.22-1.14-3.28-3.38-3.38M21.5,26.73a4.24,4.24,0,1,1,4.24-4.23,4.23,4.23,0,0,1-4.24,4.23m4.4-7.64a1,1,0,1,1,1-1,1,1,0,0,1-1,1h0M24.25,22.5a2.75,2.75,0,1,1-2.75-2.75h0a2.75,2.75,0,0,1,2.75,2.75h0M21.5,8.36A14.14,14.14,0,1,0,35.64,22.5h0A14.14,14.14,0,0,0,21.5,8.36M29.7,25.9c-.14,3-1.8,4.66-4.8,4.8-.88,0-1.16.05-3.4.05s-2.52,0-3.4-.05c-3-.14-4.66-1.8-4.8-4.8,0-.88-.05-1.16-.05-3.4s0-2.52.05-3.4c.14-3,1.8-4.66,4.8-4.8.88,0,1.16-.05,3.4-.05s2.52,0,3.4.05c3,.14,4.66,1.8,4.8,4.8,0,.88.05,1.16.05,3.4s0,2.52-.05,3.4"/></svg>